<svg xmlns="http://www.w3.org/2000/svg" width="216" height="180" viewBox="0 0 216 180">
<path d="M 116,175 116,179 144,179 145,178 146,178 147,179 151,179 151,178 150,177 142,177 141,178 140,177 137,177 136,178 135,178 134,177 130,177 129,178 128,177 128,175 123,175 122,176 122,178 121,179 120,178 120,177 119,176 119,175 Z" fill="#646464" />
<path d="M 194,174 193,175 193,177 192,178 191,177 188,177 187,178 186,178 185,177 181,177 180,178 179,177 179,175 178,175 178,176 177,177 176,176 174,176 173,177 167,177 166,178 165,177 162,177 161,178 160,177 160,175 156,175 155,176 155,179 157,179 157,178 158,177 160,177 161,178 161,179 176,179 177,178 178,179 195,179 196,178 197,179 201,179 201,178 200,177 196,177 195,176 195,175 Z" fill="#686868" />
<path d="M 67,174 66,175 66,176 65,177 64,177 63,178 62,178 61,177 57,177 56,178 55,177 47,177 46,176 46,175 44,175 44,176 43,177 42,176 40,176 39,177 36,177 35,178 33,178 32,177 33,176 34,176 34,175 30,175 29,176 29,179 38,179 39,178 40,179 42,179 43,178 44,179 56,179 57,178 58,179 71,179 72,178 73,179 75,179 75,178 74,177 70,177 70,178 69,179 68,178 68,174 Z" fill="#6a6a6a" />
<path d="M 155,146 155,147 156,147 158,149 158,154 159,154 160,153 160,148 161,147 162,148 162,153 163,154 164,154 164,153 165,152 167,154 170,154 170,153 171,152 172,152 174,154 175,154 176,153 177,154 180,154 181,153 182,153 183,154 184,154 184,153 185,152 186,152 188,154 192,154 194,152 196,154 199,154 200,153 202,153 203,154 206,154 207,153 207,150 205,148 206,147 207,147 206,146 203,146 202,147 201,147 200,146 196,146 194,148 193,147 193,146 191,146 191,151 190,152 188,150 188,147 187,146 185,146 184,147 184,149 183,150 182,150 181,149 182,148 181,147 181,146 176,146 176,149 175,150 174,149 174,147 173,146 171,146 170,147 170,149 169,150 168,149 168,147 167,146 Z" fill="#6f6f6f" />
<path d="M 200,131 200,140 201,140 201,138 202,137 204,139 204,140 205,140 206,139 206,137 207,136 208,137 208,139 209,140 212,140 214,138 215,139 215,133 214,132 214,131 213,131 212,132 212,136 211,137 210,137 209,136 209,131 208,131 208,132 207,133 206,132 206,131 205,131 205,132 204,133 203,133 202,132 202,131 Z" fill="#747474" />
<path d="M 204,117 204,125 205,125 205,123 206,122 208,122 209,121 210,122 210,123 212,125 215,125 215,117 212,117 210,119 208,117 Z" fill="#707070" />
<path d="M 131,117 130,118 130,119 129,120 129,122 130,123 130,124 131,125 134,125 135,124 137,124 138,125 141,125 142,124 142,123 143,122 144,123 144,125 145,125 147,123 149,125 150,125 151,124 151,119 152,118 153,119 153,124 154,125 155,125 155,119 156,118 157,118 158,119 158,125 159,125 161,123 162,124 162,125 163,125 164,124 165,124 166,125 169,125 170,124 171,124 171,122 172,121 173,122 173,125 178,125 180,123 181,123 183,125 184,125 185,124 186,125 189,125 190,124 191,124 191,123 192,122 193,123 193,124 194,125 197,125 198,124 199,124 199,122 200,121 200,120 199,119 199,118 198,117 194,117 193,118 193,119 192,120 191,119 191,118 190,117 185,117 185,121 184,122 183,121 183,119 182,118 182,117 180,117 179,118 179,120 178,121 178,122 177,123 175,123 174,122 174,117 173,117 173,119 172,120 171,119 171,118 170,117 166,117 164,119 162,117 149,117 149,118 148,119 146,117 144,117 144,118 143,119 141,117 137,117 136,118 135,117 Z" fill="#747474" />
<path d="M 111,117 111,125 112,125 112,123 113,122 115,124 115,125 117,125 117,123 118,122 119,123 119,124 120,125 123,125 124,124 125,124 125,122 126,121 126,120 125,119 125,118 124,117 120,117 119,118 119,119 118,120 117,119 117,117 116,117 116,119 115,120 114,119 114,118 113,117 Z" fill="#6a6a6a" />
<path d="M 85,117 83,119 83,123 85,125 90,125 92,123 93,123 95,125 98,125 99,124 100,124 101,125 102,125 103,124 104,124 105,125 106,125 107,124 108,125 109,125 109,117 108,117 107,118 106,117 104,117 103,118 103,119 102,120 100,118 100,117 97,117 97,122 96,123 95,122 95,120 94,119 94,117 92,117 91,118 91,119 90,120 89,119 89,118 88,117 Z" fill="#737373" />
<path d="M 49,117 48,118 48,119 47,120 47,122 48,123 48,124 49,125 52,125 53,124 54,124 55,125 59,125 60,124 60,123 61,122 62,123 62,125 63,125 65,123 66,124 66,125 67,125 68,124 67,123 67,120 69,118 70,119 70,125 71,125 72,124 72,119 73,118 74,118 75,119 75,125 79,125 79,123 78,123 77,122 78,121 79,121 79,120 78,120 77,119 78,118 79,118 79,117 62,117 62,118 61,119 59,117 55,117 54,118 53,117 Z" fill="#767676" />
<path d="M 202,84 202,92 209,92 211,90 212,90 214,92 215,92 215,90 214,89 214,87 213,86 213,84 210,84 210,86 209,87 209,89 207,91 205,91 204,90 204,84 Z" fill="#6b6b6b" />
<path d="M 178,84 178,92 179,92 179,90 180,89 182,91 182,92 184,92 184,91 183,90 183,88 184,87 185,88 185,89 186,90 186,91 187,92 188,92 189,93 190,92 192,92 192,91 193,90 194,91 194,92 196,92 197,93 198,92 199,92 200,91 200,84 199,84 199,90 198,91 196,91 195,90 195,84 187,84 186,85 186,86 185,87 184,86 184,85 183,84 Z" fill="#7e7e7e" />
<path d="M 168,84 167,85 167,86 166,87 166,89 167,90 167,91 168,92 169,92 170,93 171,92 176,92 176,84 Z" fill="#979797" />
<path d="M 163,38 162,39 160,39 159,40 158,39 157,39 157,44 158,43 159,43 160,44 168,44 168,43 169,42 170,43 170,44 173,44 174,43 175,43 176,44 181,44 182,43 183,44 186,44 186,39 185,39 184,38 183,39 182,39 182,41 183,42 182,43 180,43 179,42 179,39 178,39 178,42 177,43 176,42 176,41 175,40 175,39 174,39 173,40 173,42 172,43 171,43 170,42 171,41 171,39 170,39 169,38 168,38 167,39 166,39 165,38 Z" fill="#c0c0c0" />
<path d="M 100,38 99,39 98,39 98,40 97,41 95,39 94,39 94,41 93,42 92,41 92,39 90,39 90,40 89,41 89,42 88,43 88,44 89,44 90,43 92,43 93,44 95,44 95,43 96,42 97,43 97,44 98,44 98,40 99,39 100,39 101,40 101,44 102,44 102,40 103,39 104,40 104,43 105,44 108,44 108,43 109,42 110,43 110,44 111,44 111,43 113,41 114,42 114,44 115,44 116,43 117,43 118,44 119,43 120,44 125,44 126,43 128,43 129,44 130,43 131,44 134,44 135,43 135,42 134,41 134,40 135,39 136,39 137,40 137,44 138,43 139,44 140,44 141,43 142,43 143,44 144,44 144,42 143,41 143,39 141,39 141,40 140,41 140,43 139,44 138,43 138,40 139,39 139,38 136,38 135,39 134,39 133,38 132,38 129,41 128,40 128,39 126,39 126,40 124,42 123,41 123,39 122,38 121,38 118,41 117,40 117,39 115,39 115,40 114,41 112,41 111,40 112,39 113,39 113,38 111,38 109,40 107,38 106,38 104,40 103,39 103,38 Z" fill="#c1c1c1" />
<path d="M 88,35 89,36 186,36 186,35 Z" fill="#cfcfcf" />
<path d="M 137,25 137,32 138,32 138,31 139,30 141,32 142,32 142,27 143,26 144,26 145,27 145,32 146,32 146,27 147,26 149,26 150,27 150,32 151,32 151,25 150,25 149,26 148,25 141,25 141,26 140,27 138,25 Z" fill="#a3a3a3" />
<path d="M 125,25 124,26 124,31 125,31 126,32 128,32 129,31 130,31 131,32 135,32 135,31 134,30 135,29 135,28 133,28 132,27 133,26 135,26 135,25 131,25 130,26 129,26 128,25 Z" fill="#b4b4b4" />
<path d="M 102,25 102,32 106,32 107,31 106,30 106,28 104,28 103,27 104,26 107,26 109,28 109,31 110,32 111,32 111,31 112,30 112,29 113,28 114,29 114,32 115,32 115,31 116,30 117,30 118,31 118,32 120,32 119,31 119,29 118,28 118,26 117,25 116,25 115,26 115,28 114,29 113,28 113,25 112,25 112,26 111,27 110,27 109,26 109,25 Z" fill="#a6a6a6" />
<path d="M 88,25 88,32 89,32 89,31 90,30 91,30 92,31 92,32 93,32 93,31 94,30 96,32 99,32 100,31 100,25 99,25 99,29 98,30 97,30 96,29 96,25 95,25 94,26 93,25 92,25 92,26 91,27 89,25 Z" fill="#a8a8a8" />
<path d="M 95,16 95,23 96,23 96,22 97,21 99,23 100,23 101,22 102,22 103,23 105,23 106,22 106,21 107,20 107,19 108,18 109,19 109,22 110,23 111,22 111,19 113,17 114,18 114,23 118,23 119,22 121,22 122,23 124,23 125,22 125,21 122,21 121,20 121,19 123,17 124,18 125,17 127,17 128,18 128,23 129,23 129,20 130,19 130,18 131,17 132,18 132,21 134,23 136,23 138,21 138,18 137,17 137,16 121,16 120,17 119,16 111,16 111,17 110,18 109,17 109,16 107,16 106,17 105,16 102,16 101,17 100,17 99,16 Z" fill="#afafaf" />
<path d="M 60,13 57,16 57,17 55,19 55,20 54,21 54,22 50,26 50,27 48,29 48,30 46,32 46,33 44,35 44,36 42,38 42,39 40,41 40,42 39,43 39,45 41,47 44,47 45,46 45,45 47,43 47,42 50,39 50,38 52,36 53,37 53,38 56,41 56,42 58,44 58,45 60,47 64,47 64,46 67,43 67,42 68,41 68,40 72,36 73,37 73,38 75,40 75,41 77,43 77,44 80,47 84,47 85,46 85,43 84,42 84,41 82,39 82,38 79,35 79,34 77,32 77,31 73,27 73,26 71,24 71,23 70,22 70,21 68,19 68,18 65,15 65,14 64,13 Z" fill="#afb8b3" />
</svg>